<svg width="30" height="30" viewBox="0 0 30 30" fill="none" xmlns="http://www.w3.org/2000/svg">
<path d="M29.7253 13.7902L18.0662 1.35244C16.3752 -0.450812 13.6248 -0.450812 11.9338 1.35244L0.274661 13.7902C-0.0915536 14.1808 -0.0915536 14.814 0.274661 15.2046C0.640289 15.5953 1.23444 15.5953 1.60006 15.2046L2.34363 14.4114V27.1248C2.34363 28.7127 3.55038 30 5.03896 30H9.72651C10.0501 30 10.3125 29.7202 10.3125 29.375V20.1243C10.3125 18.3983 11.6241 16.9991 13.2422 16.9991H16.7578C18.3759 16.9991 19.6875 18.3983 19.6875 20.1243V29.375C19.6875 29.7202 19.9499 30 20.2735 30H24.961C26.4496 30 27.6564 28.7127 27.6564 27.1248V14.4114L28.3999 15.2046C28.5827 15.3996 28.823 15.4978 29.0626 15.4978C29.3023 15.4978 29.5425 15.3996 29.7253 15.2046C30.0916 14.814 30.0916 14.1808 29.7253 13.7902Z" fill="black"/>
</svg>
