<svg width="30" height="30" viewBox="0 0 30 30" fill="none" xmlns="http://www.w3.org/2000/svg">
<path d="M26.7857 0H3.21428C1.43908 0 0 1.43909 0 3.21431V20.3573C0 22.1325 1.43908 23.5716 3.21428 23.5716H7.01787L6.43503 28.8109C6.37006 29.3991 6.79419 29.9285 7.38237 29.9935C7.68609 30.0271 7.98969 29.9293 8.21683 29.7249L15.0546 23.5716H26.7857C28.5609 23.5716 30 22.1325 30 20.3573V3.21431C30 1.43909 28.5609 0 26.7857 0ZM27.8571 20.3573C27.8571 20.9491 27.3774 21.4288 26.7857 21.4288H14.6432C14.3785 21.4288 14.1231 21.527 13.9264 21.7041L8.87569 26.2502L9.27961 22.6191C9.34528 22.0311 8.92183 21.5011 8.33372 21.4354C8.29417 21.431 8.25443 21.4287 8.21463 21.4288H3.21428C2.62253 21.4288 2.14283 20.9491 2.14283 20.3573V3.21431C2.14283 2.62255 2.62253 2.14285 3.21428 2.14285H26.7857C27.3775 2.14285 27.8572 2.62255 27.8572 3.21431V20.3573H27.8571Z" fill="black"/>
</svg>
