<svg width="30" height="30" viewBox="0 0 30 30" fill="none" xmlns="http://www.w3.org/2000/svg">
<path d="M0 20.2734C0 25.6174 4.38164 30 9.72656 30C15.0575 30 19.3945 25.6367 19.3945 20.2734C19.3945 19.962 19.3791 19.654 19.3502 19.3499C19.6566 19.379 19.9648 19.3945 20.2734 19.3945C25.6367 19.3945 30 15.0575 30 9.72656C30 4.38264 25.6184 0 20.2734 0C14.9425 0 10.6055 4.3633 10.6055 9.72656C10.6055 10.0352 10.621 10.3434 10.6501 10.6498C10.346 10.6209 10.038 10.6055 9.72656 10.6055C4.3633 10.6055 0 14.9425 0 20.2734ZM18.9986 17.5339C18.5933 16.1645 17.8923 14.921 16.9697 13.8775C16.9869 13.8611 17.0041 13.8447 17.0201 13.8267C17.8484 12.8967 19.0341 12.3633 20.2734 12.3633C21.5128 12.3633 22.6985 12.8967 23.5267 13.8267C23.8495 14.1892 24.4051 14.2214 24.7676 13.8986C25.1301 13.5758 25.1623 13.0202 24.8395 12.6577C23.6781 11.3535 22.0138 10.6055 20.2734 10.6055C18.533 10.6055 16.8688 11.3535 15.7074 12.6577C15.703 12.6626 15.6994 12.6679 15.6952 12.6728C14.7457 11.9255 13.653 11.3527 12.4661 11.0014C12.3983 10.5816 12.3633 10.1548 12.3633 9.72656C12.3633 5.33256 15.9118 1.75781 20.2734 1.75781C24.6674 1.75781 28.2422 5.33256 28.2422 9.72656C28.2422 14.0882 24.6674 17.6367 20.2734 17.6367C19.8452 17.6367 19.4184 17.6017 18.9986 17.5339ZM1.75781 20.2734C1.75781 15.9118 5.33256 12.3633 9.72656 12.3633C14.0882 12.3633 17.6367 15.9118 17.6367 20.2734C17.6367 24.6674 14.0882 28.2422 9.72656 28.2422C5.33256 28.2422 1.75781 24.6674 1.75781 20.2734Z" fill="black"/>
<path d="M4.05794 21.5245C3.89323 21.7578 3.85221 22.0566 3.9479 22.3257C4.81971 24.7781 7.14196 26.4258 9.72653 26.4258C12.3111 26.4258 14.6333 24.7781 15.5052 22.3256C15.6008 22.0565 15.5598 21.7577 15.3951 21.5244C15.2304 21.2911 14.9626 21.1523 14.6771 21.1523H4.776C4.49042 21.1523 4.22264 21.2911 4.05794 21.5245ZM6.23376 22.9102H13.2193C12.405 23.9954 11.1188 24.668 9.72653 24.668C8.33422 24.668 7.04809 23.9954 6.23376 22.9102Z" fill="black"/>
<path d="M14.1211 18.5156C14.1211 18.031 13.7268 17.6367 13.2422 17.6367C12.7576 17.6367 12.3633 18.031 12.3633 18.5156C12.3633 19.001 11.9698 19.3945 11.4844 19.3945C10.999 19.3945 10.6055 19.001 10.6055 18.5156C10.6055 17.0617 11.7883 15.8789 13.2422 15.8789C14.6961 15.8789 15.8789 17.0617 15.8789 18.5156C15.8789 19.001 15.4854 19.3945 15 19.3945C14.5146 19.3945 14.1211 19.001 14.1211 18.5156Z" fill="black"/>
<path d="M6.21094 15.8789C7.66482 15.8789 8.84766 17.0617 8.84766 18.5156C8.84766 19.001 8.45414 19.3945 7.96875 19.3945C7.48336 19.3945 7.08984 19.001 7.08984 18.5156C7.08984 18.031 6.69557 17.6367 6.21094 17.6367C5.72631 17.6367 5.33203 18.031 5.33203 18.5156C5.33203 19.001 4.93852 19.3945 4.45312 19.3945C3.96773 19.3945 3.57422 19.001 3.57422 18.5156C3.57422 17.0617 4.75705 15.8789 6.21094 15.8789Z" fill="black"/>
<path d="M21.1523 7.08984C21.1523 6.60445 21.5459 6.21094 22.0312 6.21094C22.5166 6.21094 22.9102 6.60445 22.9102 7.08984C22.9102 7.57447 23.3044 7.96875 23.7891 7.96875C24.2737 7.96875 24.668 7.57447 24.668 7.08984C24.668 6.60445 25.0615 6.21094 25.5469 6.21094C26.0323 6.21094 26.4258 6.60445 26.4258 7.08984C26.4258 8.54373 25.2429 9.72656 23.7891 9.72656C22.3352 9.72656 21.1523 8.54373 21.1523 7.08984Z" fill="black"/>
<path d="M16.7578 9.72656C15.3039 9.72656 14.1211 8.54373 14.1211 7.08984C14.1211 6.60445 14.5146 6.21094 15 6.21094C15.4854 6.21094 15.8789 6.60445 15.8789 7.08984C15.8789 7.57447 16.2732 7.96875 16.7578 7.96875C17.2424 7.96875 17.6367 7.57447 17.6367 7.08984C17.6367 6.60445 18.0302 6.21094 18.5156 6.21094C19.001 6.21094 19.3945 6.60445 19.3945 7.08984C19.3945 8.54373 18.2117 9.72656 16.7578 9.72656Z" fill="black"/>
</svg>
