<svg width="43" height="42" viewBox="0 0 43 42" fill="none" xmlns="http://www.w3.org/2000/svg">
<path d="M21.5001 25.192C18.3497 25.192 15.6855 27.265 14.8619 30.0875H28.1381C27.3147 27.265 24.6505 25.192 21.5001 25.192Z" fill="black"/>
<path d="M21.5001 14.348C22.8819 14.348 24.006 13.2499 24.006 11.9002C24.006 10.5505 22.8818 9.45241 21.5001 9.45241C20.1184 9.45241 18.9941 10.5505 18.9941 11.9002C18.9941 13.2499 20.1182 14.348 21.5001 14.348Z" fill="black"/>
<path d="M21.5001 0C9.64489 0 0 9.42056 0 21C0 32.5794 9.64489 42 21.5001 42C33.3551 42 43 32.5794 43 21C43 9.42056 33.3551 0 21.5001 0ZM21.5001 5.76278C24.9649 5.76278 27.7836 8.51608 27.7836 11.9003C27.7836 15.2846 24.9648 18.0379 21.5001 18.0379C18.0354 18.0379 15.2165 15.2846 15.2165 11.9003C15.2165 8.51608 18.0352 5.76278 21.5001 5.76278ZM32.1785 33.7773H10.8216V31.9324C10.8216 26.1812 15.6119 21.5023 21.5001 21.5023C27.3882 21.5023 32.1785 26.1812 32.1785 31.9324V33.7773Z" fill="black"/>
<path d="M21.5001 25.192C18.3497 25.192 15.6855 27.265 14.8619 30.0875H28.1381C27.3147 27.265 24.6505 25.192 21.5001 25.192Z" fill="black"/>
<path d="M21.5001 14.348C22.8819 14.348 24.006 13.2499 24.006 11.9002C24.006 10.5505 22.8818 9.45241 21.5001 9.45241C20.1184 9.45241 18.9941 10.5505 18.9941 11.9002C18.9941 13.2499 20.1182 14.348 21.5001 14.348Z" fill="black"/>
<path d="M21.5001 0C9.64489 0 0 9.42056 0 21C0 32.5794 9.64489 42 21.5001 42C33.3551 42 43 32.5794 43 21C43 9.42056 33.3551 0 21.5001 0ZM21.5001 5.76278C24.9649 5.76278 27.7836 8.51608 27.7836 11.9003C27.7836 15.2846 24.9648 18.0379 21.5001 18.0379C18.0354 18.0379 15.2165 15.2846 15.2165 11.9003C15.2165 8.51608 18.0352 5.76278 21.5001 5.76278ZM32.1785 33.7773H10.8216V31.9324C10.8216 26.1812 15.6119 21.5023 21.5001 21.5023C27.3882 21.5023 32.1785 26.1812 32.1785 31.9324V33.7773Z" fill="black"/>
</svg>
