<svg width="100" height="100" viewBox="0 0 100 100" fill="none" xmlns="http://www.w3.org/2000/svg">
<g clip-path="url(#clip0)">
<path d="M85.3554 14.6446C75.9117 5.20096 63.3553 0 50 0C36.644 0 24.0883 5.20096 14.6446 14.6446C5.20096 24.0883 0 36.644 0 50C0 63.3553 5.20096 75.9117 14.6446 85.3554C24.0883 94.799 36.644 100 50 100C63.3553 100 75.9117 94.799 85.3554 85.3554C94.799 75.9117 100 63.3553 100 50C100 36.644 94.799 24.0883 85.3554 14.6446ZM25.0664 86.4037C27.1576 74.3629 37.5916 65.4816 50 65.4816C62.4092 65.4816 72.8424 74.3629 74.9336 86.4037C67.8345 91.2811 59.2453 94.1406 50 94.1406C40.7547 94.1406 32.1655 91.2811 25.0664 86.4037ZM34.1019 43.7241C34.1019 34.9571 41.2338 27.8259 50 27.8259C58.7662 27.8259 65.8981 34.9579 65.8981 43.7241C65.8981 52.4902 58.7662 59.6222 50 59.6222C41.2338 59.6222 34.1019 52.4902 34.1019 43.7241ZM80.0087 82.3395C78.4317 76.7342 75.2998 71.6484 70.9099 67.6758C68.2167 65.2382 65.1512 63.3148 61.8553 61.9591C67.8123 58.0734 71.7583 51.3512 71.7583 43.7241C71.7583 31.7268 61.9972 21.9666 50 21.9666C38.0028 21.9666 28.2425 31.7268 28.2425 43.7241C28.2425 51.3512 32.1884 58.0734 38.1447 61.9591C34.8495 63.3148 31.7833 65.2374 29.0901 67.675C24.7009 71.6476 21.5683 76.7334 19.9913 82.3387C11.3052 74.2722 5.85938 62.7609 5.85938 50C5.85938 25.6607 25.6607 5.85938 50 5.85938C74.3393 5.85938 94.1406 25.6607 94.1406 50C94.1406 62.7617 88.6948 74.2729 80.0087 82.3395Z" fill="black"/>
</g>
<defs>
<clipPath id="clip0">
<rect width="100" height="100" fill="white"/>
</clipPath>
</defs>
</svg>
