<svg width="15" height="15" viewBox="0 0 15 15" fill="none" xmlns="http://www.w3.org/2000/svg">
<path d="M1.72501 7.54276C1.72501 7.54276 6.62573 6.08949 7.35166 2.32599C7.35166 2.32599 8.99123 7.49521 13.5 7.46821C13.5 7.46821 7.68706 8.36251 7.35166 14.25C7.35166 14.25 7.64978 8.21349 1.72501 7.54276Z" fill="#9795F1"/>
<path d="M0.75 8.25C4.0584 8.25 6.75 10.9416 6.75 14.25C6.75 14.6642 7.08585 15 7.5 15C7.91415 15 8.25 14.6642 8.25 14.25C8.25 10.9416 10.9416 8.25 14.25 8.25C14.6642 8.25 15 7.91415 15 7.5C15 7.08585 14.6642 6.75 14.25 6.75C10.9416 6.75 8.25 4.0584 8.25 0.75C8.25 0.33585 7.91415 0 7.5 0C7.08585 0 6.75 0.33585 6.75 0.75C6.75 4.0584 4.0584 6.75 0.75 6.75C0.33585 6.75 0 7.08585 0 7.5C0 7.91415 0.33585 8.25 0.75 8.25ZM7.5 4.01783C8.2362 5.53238 9.46755 6.76373 10.9822 7.5C9.46762 8.2362 8.23628 9.46755 7.5 10.9822C6.7638 9.46762 5.53245 8.23628 4.01783 7.5C5.53245 6.7638 6.7638 5.53245 7.5 4.01783Z" fill="#9795F1"/>
</svg>
